#!OML:ASF E:/inclinewalkrobotboard/Project1/Captureday1/Session1/subject1.ASF
:FULLY-SPECIFIED
:DEGREES
76
root 0 0 0 1.1403152456676735 -3.6804906777279456 1.8103946102599129
lowerback 11.909755444663068 0.8667911239688977 -0.03490015386822937
upperback -4.245061360480126 1.1006865693715528 -0.5511165156252724
thorax -11.310629892613761 0.5031231759413003 -0.8113841568518267
lowerneck -5.934941973418322 1.4948065453026023 4.545647537023047
upperneck 18.156147600822322 2.9536879733421624 -8.27119789097674
head 6.655334851311789 1.0756263117292206 -3.1970583131015444
rclavicle 1.3042716186124062E-15 -1.2113247780694868E-15
rhumerus 19.35904853350816 13.974532541082919 -48.399712802141785
rradius 71.70930705125072
rwrist 26.681471400321822
rhand -34.695640823546874 -56.36314093300656
rfingers 7.125020000000027
rthumb -7.835225264666921 -86.29129069452611
lclavicle 1.1348355001349381E-15 -1.8769605271164956E-15
lhumerus 20.73210885487788 -12.271822518737466 44.90188451687032
lradius 69.73929221558306
lwrist -22.66159006062389
lhand -44.51421587304989 -69.40866077528672
lfingers 7.125020000000021
lthumb -17.340630406542466 -40.131175405157876
rfemur -24.6441744966019 -2.096295401847326 17.18109513141273
rtibia 53.83073319081793
rfoot -29.088603346868968 -17.03121266285011
rtoes -18.315539569940334
lfemur -26.263993688827707 2.5089509899583087 -18.018917975289973
ltibia 54.19943198406215
lfoot -31.068050873917073 -3.4581343767543804
ltoes -20.0897890486718
77
root 0 0 0 1.1347005110291164 -3.684404030635845 1.8109244774888242
lowerback 11.90985209652205 0.8661109640512006 -0.0339147339119254
upperback -4.241886897241493 1.1001054177406087 -0.550206559633863
thorax -11.307115005160595 0.5027928700537337 -0.8107308150434718
lowerneck -5.915948223156447 1.4916524839260077 4.549204397431383
upperneck 18.14524093052728 2.9500493085374258 -8.280995839384133
head 6.64864903544436 1.0739752121994626 -3.201140694414073
rclavicle 1.3278984780937738E-15 -1.2125106600828905E-15
rhumerus 19.36654009841758 13.982350987267521 -48.396804247436506
rradius 71.7135302626634
rwrist 26.679307113493763
rhand -34.6849453420613 -56.349033068523184
rfingers 7.125020000000028
rthumb -7.82485539961655 -86.27753491448482
lclavicle 1.1528896265369887E-15 -1.880573003333633E-15
lhumerus 20.733606799520032 -12.276989832201725 44.896926420608665
lradius 69.74154271514755
lwrist -22.662195784762144
lhand -44.51073757960799 -69.38744452416043
lfingers 7.125020000000021
lthumb -17.3372614669626 -40.11019793400477
rfemur -24.64438950409221 -2.096403308680903 17.18118246204492
rtibia 53.83150587481806
rfoot -29.089510808817842 -17.030921278331427
rtoes -18.315886951570214
lfemur -26.261323925384094 2.510392427403877 -18.018821501909752
ltibia 54.199443834319425
lfoot -31.067363650508014 -3.4566467551156586
ltoes -20.099188370686782
78
root 0 0 0 1.1294107797080997 -3.688104013586238 1.8114198701767366
lowerback 11.909936337690198 0.8654702081715754 -0.03298387422545945
upperback -4.238906556559235 1.0995578069856902 -0.5493493540480905
thorax -11.303811108780195 0.5024815446053535 -0.8101173536690585
lowerneck -5.898060879046875 1.4886917031796258 4.552554312183535
upperneck 18.13497170775587 2.9466367026202356 -8.290218669614708
head 6.642352904095903 1.07242685372881 -3.2049822719087686
rclavicle 1.3484352676789562E-15 -1.2128456365492893E-15
rhumerus 19.374232627604407 13.990344168771013 -48.393709230977066
rradius 71.71792918987674
rwrist 26.67714828202842
rhand -34.674062004025735 -56.33478445738059
rfingers 7.125020000000028
rthumb -7.814300938324511 -86.26369977585853
lclavicle 1.1687202779686738E-15 -1.8831129799523704E-15
lhumerus 20.735035642434717 -12.282032109093663 44.89214230305644
lradius 69.74375090982657
lwrist -22.662763731246166
lhand -44.50730736466722 -69.36642855490528
lfingers 7.125020000000021
lthumb -17.33392972021571 -40.08933157045719
rfemur -24.64448187690342 -2.0965112391200478 17.18129641211281
rtibia 53.83239807296101
rfoot -29.090443949513627 -17.030626654220278
rtoes -18.316305220166527
lfemur -26.25875085014211 2.511822786810829 -18.018730210535185
ltibia 54.19963509826759
lfoot -31.066738811168822 -3.4552029746032886
ltoes -20.10828476613206
79
root 0 0 0 1.1239848259773775 -3.691892425701531 1.8119198540720527
lowerback 11.910018948454635 0.864810568522653 -0.03201113371817327
upperback -4.2358301747849865 1.098996582105873 -0.548465095100147
thorax -11.300397228312379 0.5021614295703825 -0.8094916408599011
lowerneck -5.87960524452622 1.4856108516059292 4.555999809333848
upperneck 18.124318046720465 2.9430763304819596 -8.299715251964063
head 6.635837496209936 1.0708125770014445 -3.2089423475139753
rclavicle 1.377314639744792E-15 -1.2205404042585935E-15
rhumerus 19.382267375679284 13.999223808064917 -48.392540975680184
rradius 71.72289001772485
rwrist 26.67329704201811
rhand -34.664799182631214 -56.321758930719525
rfingers 7.125020000000028
rthumb -7.8052623818049405 -86.25114374059174
lclavicle 1.210291439106479E-15 -1.897268268875548E-15
lhumerus 20.73581656773857 -12.286997188882511 44.886522323125845
lradius 69.74575486448046
lwrist -22.66339218471811
lhand -44.503002286640374 -69.34346750442465
lfingers 7.12502000000002
lthumb -17.329805181014898 -40.06703386847444
rfemur -24.644281794245668 -2.0969416327832495 17.182096855852922
rtibia 53.834429082412925
rfoot -29.092822018127084 -17.031404118139086
rtoes -18.317145802871806
lfemur -26.25802278136235 2.5127792749855917 -18.018919161691827
ltibia 54.20081931313649
lfoot -31.06730439991366 -3.4551502027034444
ltoes -20.114200091950135
80
root 0 0 0 1.1200782481707248 -3.6946509450411256 1.8122885446444323
lowerback 11.910084947944497 0.8643384245475615 -0.03133346895430761
upperback -4.233652485971605 1.0985908986752395 -0.5478340795660697
thorax -11.297986238566097 0.5019315880274685 -0.8090371207251219
lowerneck -5.866490315346015 1.4834725118654883 4.558465123596762
upperneck 18.1168247441671 2.9406234616745337 -8.3064951843032
head 6.6312326482156365 1.0696988844063786 -3.211760527160056
rclavicle 1.3780566301164633E-15 -1.2121848093803295E-15
rhumerus 19.388136094881638 14.004679654830177 -48.38767995594488
rradius 71.72585326599123
rwrist 26.673460384619204
rhand -34.65413695406819 -56.30884262749628
rfingers 7.125020000000028
rthumb -7.794986121578859 -86.23861489084051
lclavicle 1.1902972529312657E-15 -1.8858591565017127E-15
lhumerus 20.737721052768002 -12.291108912857082 44.88360182107832
lradius 69.74777432249121
lwrist -22.663784569065456
lhand -44.501270222655975 -69.32876499943657
lfingers 7.125020000000021
lthumb -17.328053434325426 -40.05176515962527
rfemur -24.644736447913758 -2.0967841886537384 17.181488462556473
rtibia 53.83411207966354
rfoot -29.092348909622665 -17.03025238918362
rtoes -18.317011625820445
lfemur -26.254091049132704 2.5144454353731334 -18.018580408012056
ltibia 54.199981263800254
lfoot -31.065687202210203 -3.452462378782495
ltoes -20.124853662764185
81
root 0 0 0 1.1168691603432133 -3.6969078518764755 1.8125865011275806
lowerback 11.910134785888419 0.8639490392087064 -0.030767063126504124
upperback -4.2318523083804935 1.0982577073736353 -0.5473133134805723
thorax -11.295989926314126 0.5017422099095166 -0.8086657447930923
lowerneck -5.855653489294804 1.4816877714028538 4.560494657198007
upperneck 18.110600646017364 2.938569577819167 -8.312082406836016
head 6.62741700303015 1.0687670954358575 -3.2140861733367783
rclavicle 1.3968273690514458E-15 -1.2129025010289109E-15
rhumerus 19.393403619606968 14.010219671727977 -48.385759280907195
rradius 71.72881058111055
rwrist 26.671874771470808
rhand -34.646654078133224 -56.2989143036972
rfingers 7.125020000000028
rthumb -7.787734545309 -86.22890874902107
lclavicle 1.2046100789554025E-15 -1.8883505704045716E-15
lhumerus 20.738686371645624 -12.29462838143596 44.88019913171263
lradius 69.74925253758282
lwrist -22.664206793450703
lhand -44.49885132964982 -69.3141475998216
lfingers 7.125020000000021
lthumb -17.32570986111875 -40.037352431976586
rfemur -24.64487320474486 -2.0968291792924183 17.181552590319594
rtibia 53.83454562580023
rfoot -29.092976737981623 -17.03006737223132
rtoes -18.317215743907056
lfemur -26.252237475708405 2.515445858725925 -18.018521846212856
ltibia 54.19987474557451
lfoot -31.065158226961294 -3.4514405953818543
ltoes -20.131342416568973
82
root 0 0 0 1.1141463752849317 -3.6988314698433706 1.812836976159914
lowerback 11.91017178977291 0.8636188328563575 -0.030285000351590485
upperback -4.230331757020831 1.0979751075485766 -0.5468716940078229
thorax -11.294300611671265 0.5015815185515203 -0.808352074514363
lowerneck -5.846461471359614 1.4801800889018608 4.562216586132053
upperneck 18.105324123088145 2.936836522952216 -8.316818627058264
head 6.624181133235478 1.0679809481926368 -3.21605691586319
rclavicle 1.4110644380642764E-15 -1.2128267469212495E-15
rhumerus 19.39831486846175 14.01535428896898 -48.38387458514364
rradius 71.73162655492465
rwrist 26.670448170498226
rhand -34.639770320019124 -56.289872575823175
rfingers 7.125020000000028
rthumb -7.781060002767195 -86.220118358445
lclavicle 1.2157045599136485E-15 -1.8896983066360236E-15
lhumerus 20.73949529246201 -12.297699698131488 44.87727640497201
lradius 69.75055194379692
lwrist -22.664552551861004
lhand -44.49670252280007 -69.30110017859347
lfingers 7.12502000000002
lthumb -17.32362028029496 -40.02441431167004
rfemur -24.644885206025236 -2.0968693279129904 17.181636700789856
rtibia 53.83504838915173
rfoot -29.09355591162254 -17.02988995657033
rtoes -18.31746856105837
lfemur -26.250655342105205 2.516334695102782 -18.018470782642574
ltibia 54.19995238345149
lfoot -31.064744166635567 -3.4505618024895797
ltoes -20.13691663114449
83
root 0 0 0 1.111970430924809 -3.7003704642612436 1.8130369242102113
lowerback 11.910202054566357 0.8633547388291727 -0.029898973751141478
upperback -4.229116137120351 1.097749130048936 -0.5465183498958214
thorax -11.292950417559215 0.5014530001142868 -0.8081014275276904
lowerneck -5.839113140458799 1.478974837315938 4.563592883838612
upperneck 18.10110245200299 2.9354511816302553 -8.320605227756976
head 6.621593119260598 1.0673525604021328 -3.2176324215081156
rclavicle 1.4212175212093996E-15 -1.212418961867541E-15
rhumerus 19.40217346335585 14.019371315718548 -48.38231314122344
rradius 71.7338159365224
rwrist 26.669361673940188
rhand -34.63427390378147 -56.28265836604235
rfingers 7.125020000000028
rthumb -7.775733233450531 -86.21311626825087
lclavicle 1.223290951096546E-15 -1.890268616303581E-15
lhumerus 20.74017177005532 -12.300147075754017 44.874946984860486
lradius 69.75159552534667
lwrist -22.664839926212466
lhand -44.49502387570579 -69.29078006383128
lfingers 7.12502000000002
lthumb -17.32198637235755 -40.01415467504267
rfemur -24.64493089342284 -2.096911727395564 17.18169783057279
rtibia 53.835433191366434
rfoot -29.094054536888258 -17.029783662994323
rtoes -18.317639442572784
lfemur -26.249371931769204 2.517055616987987 -18.018430749228415
ltibia 54.199973821978865
lfoot -31.064419670124114 -3.449823842472132
ltoes -20.141449389713753
